<?xml version="1.0" standalone="no"?><!DOCTYPE svg PUBLIC "-//W3C//DTD SVG 1.1//EN" "http://www.w3.org/Graphics/SVG/1.1/DTD/svg11.dtd"><svg t="1691218665395" class="icon" viewBox="0 0 1026 1024" version="1.1" xmlns="http://www.w3.org/2000/svg" p-id="7141" xmlns:xlink="http://www.w3.org/1999/xlink" width="200.390625" height="200"><path d="M972.926654 380.807256h-153.2517l-13.931973-276.31746-48.761905-6.965986-501.55102-6.965987-215.945579 13.931973-20.897959 39.473923V719.818594l88.235828 32.507937h67.337868s-2.321995 118.421769 2.321996 125.387755c2.321995 6.965986 13.931973-4.643991 13.931973-4.643991l41.795918-25.54195 83.591837-74.303855 39.473923-25.54195 53.405895 6.965986 23.219955 25.54195-9.287982 60.371882 20.897959 30.185941 311.147393 2.321996 136.997732 106.811791 6.965986-109.133787h65.015873l20.89796-11.609977 13.931972-37.151927V408.671202l-25.54195-27.863946z" fill="#4DCEF7" p-id="7142"></path><path d="M0.010555 401.705215l2.321995 622.294785" fill="#00AEF7" p-id="7143"></path><path d="M954.350691 359.909297h-116.099774V146.285714c0-41.795918-30.185941-71.981859-71.981859-71.981859H81.280396C39.484477 74.303855 9.298536 104.489796 9.298536 146.285714v545.668935c0 41.795918 30.185941 71.981859 71.98186 71.981859h78.947846v102.1678c0 4.643991 2.321995 9.287982 4.643991 13.931973 4.643991 4.643991 11.609977 9.287982 18.575963 9.287982 4.643991 0 9.287982-2.321995 13.931973-4.643991l153.251701-123.06576h51.0839V812.698413c0 34.829932 27.863946 67.337868 65.015873 67.337868h290.249433l132.353742 104.489796c2.321995 2.321995 6.965986 2.321995 9.287981 2.321996s4.643991 0 6.965987-2.321996c4.643991-2.321995 9.287982-6.965986 9.287982-13.931973v-92.879818H956.672686c34.829932 0 65.015873-30.185941 65.015873-67.337869V427.247166c-2.321995-39.473923-32.507937-67.337868-67.337868-67.337869z m-613.006803 371.519274L190.414183 852.172336v-120.743765H81.280396c-20.897959 0-41.795918-18.575964-41.795919-41.795918V146.285714c0-20.897959 18.575964-41.795918 41.795919-41.795918h684.988662c20.897959 0 41.795918 18.575964 41.795918 41.795918v545.668935c0 20.897959-18.575964 41.795918-41.795918 41.795918H341.343888zM986.858627 812.698413c0 18.575964-13.931973 34.829932-30.185941 34.829932h-60.371882c-9.287982 0-16.253968 6.965986-16.253968 16.253968v76.62585L770.913049 854.494331c-2.321995-2.321995-6.965986-2.321995-9.287982-2.321995H464.409647c-16.253968 0-30.185941-16.253968-30.185941-34.829932V766.258503h334.367347c41.795918 0 71.981859-30.185941 71.98186-71.981859V390.095238h116.099773c16.253968 0 30.185941 16.253968 30.185941 34.829932V812.698413z" fill="#16A4E8" p-id="7144"></path><path d="M564.255452 322.75737c-6.965986-9.287982-23.219955-11.609977-32.507936-4.643991l-171.827664 130.031746-65.015873-83.591837c-6.965986-9.287982-23.219955-11.609977-32.507937-4.643991-9.287982 6.965986-11.609977 23.219955-4.643991 32.507937l78.947846 102.1678c4.643991 6.965986 11.609977 9.287982 18.575964 9.287982 4.643991 0 9.287982-2.321995 13.931972-4.643991l190.403629-143.963719c9.287982-6.965986 11.609977-23.219955 4.64399-32.507936zM83.602391 143.963719c-9.287982 0-16.253968 6.965986-16.253968 13.931973v197.369614c0 9.287982 6.965986 16.253968 16.253968 16.253968s13.931973-6.965986 13.931973-13.931972V157.895692c0-6.965986-6.965986-13.931973-13.931973-13.931973z" fill="#FCFCFF" p-id="7145"></path><path d="M83.602391 404.027211m-13.931973 0a13.931973 13.931973 0 1 0 27.863946 0 13.931973 13.931973 0 1 0-27.863946 0Z" fill="#FCFCFF" p-id="7146"></path></svg>